<svg width="800" height="500" viewBox="0 0 800 500" fill="none" xmlns="http://www.w3.org/2000/svg">
  <rect width="800" height="500" rx="16" fill="#0c1214"/>
  <circle cx="400" cy="200" r="180" fill="#10b981" fill-opacity="0.08" filter="blur(60px)"/>
  
  <rect x="80" y="70" width="640" height="360" rx="14" fill="#0f1f1d" fill-opacity="0.8" stroke="#10b981" stroke-opacity="0.3" stroke-width="1.5"/>
  <rect x="80" y="70" width="640" height="46" rx="14" fill="#0a1715"/>
  <circle cx="110" cy="93" r="5" fill="#ef4444"/>
  <circle cx="126" cy="93" r="5" fill="#f59e0b"/>
  <circle cx="142" cy="93" r="5" fill="#10b981"/>
  <text x="170" y="98" fill="#6ee7b7" font-family="monospace" font-size="13">mask-helmet-detector // yolo-opencv-stream</text>

  <!-- Video Bounding Box Simulation -->
  <rect x="120" y="145" width="280" height="240" rx="10" fill="#05100e" stroke="#ffffff" stroke-opacity="0.08"/>
  <text x="140" y="175" fill="#10b981" font-family="sans-serif" font-size="12" font-weight="bold">COMPUTER VISION FEED</text>

  <!-- Bounding Box 1: Helmet -->
  <rect x="160" y="200" width="90" height="70" rx="4" fill="none" stroke="#10b981" stroke-width="2" stroke-dasharray="3 3"/>
  <rect x="160" y="185" width="80" height="15" fill="#10b981"/>
  <text x="165" y="196" fill="#042f2e" font-family="monospace" font-size="9" font-weight="bold">Helmet 98%</text>

  <!-- Bounding Box 2: Mask -->
  <rect x="270" y="230" width="90" height="70" rx="4" fill="none" stroke="#38bdf8" stroke-width="2" stroke-dasharray="3 3"/>
  <rect x="270" y="215" width="70" height="15" fill="#38bdf8"/>
  <text x="275" y="226" fill="#082f49" font-family="monospace" font-size="9" font-weight="bold">Mask 96%</text>

  <!-- Analytics Metrics -->
  <rect x="420" y="145" width="260" height="240" rx="10" fill="#05100e" stroke="#ffffff" stroke-opacity="0.08"/>
  <text x="440" y="175" fill="#94a3b8" font-family="monospace" font-size="11">SAFETY COMPLIANCE METRICS</text>
  <text x="440" y="215" fill="#ffffff" font-family="sans-serif" font-size="22" font-weight="bold">30 FPS Real-time</text>
  <text x="440" y="245" fill="#10b981" font-family="sans-serif" font-size="13">&check; Safety Protocol Verified</text>
  <text x="440" y="280" fill="#cbd5e1" font-family="monospace" font-size="11">Latency: 28ms / frame</text>
  <text x="440" y="305" fill="#38bdf8" font-family="monospace" font-size="11">Model: YOLOv8 Lightweight</text>
  <text x="440" y="330" fill="#a7f3d0" font-family="monospace" font-size="11">Alert: Audible buzzer ready</text>
</svg>
